HIERARCHY
ROOT Hips
{
  OFFSET 0.000000 0.000000 0.000000
  CHANNELS 6 Xposition Yposition Zposition Zrotation Yrotation Xrotation
  JOINT Spine
  {
    OFFSET -0.000883 2.120903 -0.028059
    CHANNELS 3 Zrotation Yrotation Xrotation
    JOINT Spine1
    {
      OFFSET -0.002865 2.096658 0.129739
      CHANNELS 3 Zrotation Yrotation Xrotation
      JOINT Spine2
      {
        OFFSET -0.000072 2.101496 0.140380
        CHANNELS 3 Zrotation Yrotation Xrotation
        JOINT Neck
        {
          OFFSET 0.073278 1.835262 0.072900
          CHANNELS 3 Zrotation Yrotation Xrotation
          JOINT Head
          {
            OFFSET -0.033980 1.851628 -0.175733
            CHANNELS 3 Zrotation Yrotation Xrotation
            End Site
            {
              OFFSET 0 0 0
            }
          }
        }
        JOINT LeftShoulder
        {
          OFFSET 3.021134 1.180177 0.406022
          CHANNELS 3 Zrotation Yrotation Xrotation
          JOINT LeftArm
          {
            OFFSET 4.585380 -0.000000 -0.000000
            CHANNELS 3 Zrotation Yrotation Xrotation
            JOINT LeftForeArm
            {
              OFFSET 2.689350 -0.000000 -0.000000
              CHANNELS 3 Zrotation Yrotation Xrotation
              JOINT LeftHand
              {
                OFFSET 0.585058 -0.000000 -0.000000
                CHANNELS 3 Zrotation Yrotation Xrotation
                JOINT LeftHandIndex1
                {
                  OFFSET 0.471689 -0.000000 -0.000000
                  CHANNELS 3 Zrotation Yrotation Xrotation
                  End Site
                  {
                    OFFSET 0 0 0
                  }
                }
              }
            }
          }
        }
        JOINT RightShoulder
        {
          OFFSET -2.950738 1.188427 0.314298
          CHANNELS 3 Zrotation Yrotation Xrotation
          JOINT RightArm
          {
            OFFSET -4.474500 -0.000000 -0.000000
            CHANNELS 3 Zrotation Yrotation Xrotation
            JOINT RightForeArm
            {
              OFFSET -2.938960 -0.000000 -0.000000
              CHANNELS 3 Zrotation Yrotation Xrotation
              JOINT RightHand
              {
                OFFSET -0.405092 -0.000000 -0.000000
                CHANNELS 3 Zrotation Yrotation Xrotation
                JOINT RightHandIndex1
                {
                  OFFSET -0.326596 -0.000000 -0.000000
                  CHANNELS 3 Zrotation Yrotation Xrotation
                  End Site
                  {
                    OFFSET 0 0 0
                  }
                }
              }
            }
          }
        }
      }
    }
  }
  JOINT LeftUpLeg
  {
    OFFSET 2.251771 -6.186694 0.000000
    CHANNELS 3 Zrotation Yrotation Xrotation
    JOINT LeftLeg
    {
      OFFSET 2.266012 -6.225823 0.000000
      CHANNELS 3 Zrotation Yrotation Xrotation
      JOINT LeftFoot
      {
        OFFSET 0.237014 -0.651191 2.158476
        CHANNELS 3 Zrotation Yrotation Xrotation
        JOINT LeftToeBase
        {
          OFFSET 0.000000 -0.000000 1.129490
          CHANNELS 3 Zrotation Yrotation Xrotation
          End Site
          {
            OFFSET 0 0 0
          }
        }
      }
    }
  }
  JOINT RightUpLeg
  {
    OFFSET -2.280357 -6.265234 0.000000
    CHANNELS 3 Zrotation Yrotation Xrotation
    JOINT RightLeg
    {
      OFFSET -2.254897 -6.195283 0.000000
      CHANNELS 3 Zrotation Yrotation Xrotation
      JOINT RightFoot
      {
        OFFSET -0.283752 -0.779600 2.231370
        CHANNELS 3 Zrotation Yrotation Xrotation
        JOINT RightToeBase
        {
          OFFSET -0.000000 -0.000000 1.178990
          CHANNELS 3 Zrotation Yrotation Xrotation
          End Site
          {
            OFFSET 0 0 0
          }
        }
      }
    }
  }
}
MOTION
Frames: 11
Frame Time: 0.00833333
2.436290 14.532300 0.419278 2.761170 11.264100 12.859700 -19.640500 -14.083000 2.561300 0.000000 0.000000 21.667200 29.001700 0.000000 -35.062300 0.000000 0.000000 -6.923430 3.448120 -1.583480 -48.052200 0.000000 0.000000 45.139400 -14.789700 0.000000 -3.018190 0.000000 0.000000 -10.401800 -3.550040 -1.608030 -4.952450 -0.348195 -2.089900 -7.811320 1.612380 -0.850759 -5.226190 6.741960 0.766685 -13.943300 -2.568000 0.750628 15.967000 0.000000 0.000000 0.000000 79.413700 -29.824500 -2.600730 0.000000 0.000000 137.168000 4.881760 0.000000 -24.280100 0.000000 0.000000 7.125020 0.000000 0.000000 0.000000 -74.055800 22.540400 1.902320 0.000000 0.000000 135.623000 2.936200 0.000000 -31.302500 0.000000 0.000000 7.125020
2.441550 14.533000 0.415367 2.755020 11.240700 12.823800 -19.670700 -14.051600 2.589590 0.000000 0.000000 21.671400 29.019000 0.000000 -35.036000 0.000000 0.000000 -7.046010 3.419520 -1.543880 -47.982100 0.000000 0.000000 45.052500 -14.798000 0.000000 -2.969190 0.000000 0.000000 -10.449500 -3.572000 -1.606690 -4.964400 -0.352733 -2.088030 -7.840780 1.620030 -0.847904 -5.250650 6.711390 0.771621 -13.827000 -2.533520 0.756117 15.930600 0.000000 0.000000 0.000000 79.368900 -29.823600 -2.605820 0.000000 0.000000 137.321000 4.689240 0.000000 -23.822800 0.000000 0.000000 7.125020 0.000000 0.000000 0.000000 -74.102600 22.694900 1.822970 0.000000 0.000000 135.901000 2.855000 0.000000 -31.165800 0.000000 0.000000 7.125020
2.446190 14.535200 0.410833 2.722890 11.247600 12.800300 -19.648900 -14.021600 2.593560 0.000000 0.000000 21.665600 28.958800 0.000000 -35.039600 0.000000 0.000000 -6.933120 3.410120 -1.485140 -47.916800 0.000000 0.000000 44.966700 -14.864600 0.000000 -2.929600 0.000000 0.000000 -10.441300 -3.568750 -1.621870 -4.995190 -0.344722 -2.107120 -7.866410 1.625890 -0.856862 -5.259450 6.697240 0.775689 -13.873300 -2.525300 0.759580 16.003200 -0.000000 -0.000000 0.000000 79.325900 -29.794700 -2.610520 0.000000 0.000000 137.441000 4.493990 0.000000 -23.483300 0.000000 0.000000 7.125020 -0.000000 -0.000000 0.000000 -74.101500 22.810400 1.903540 0.000000 0.000000 136.038000 3.109500 0.000000 -31.173600 0.000000 0.000000 7.125020
2.449270 14.536400 0.407482 2.717140 11.202700 12.763600 -19.671500 -13.966400 2.626900 0.000000 0.000000 21.657600 28.962200 0.000000 -35.008000 0.000000 0.000000 -6.962840 3.364480 -1.360940 -47.864400 0.000000 0.000000 44.886900 -14.944900 0.000000 -2.848720 0.000000 0.000000 -10.495000 -3.609100 -1.626570 -5.019470 -0.352061 -2.112710 -7.898560 1.640510 -0.856877 -5.279090 6.808580 0.795489 -13.734200 -2.574040 0.782579 15.992800 -0.000000 -0.000000 0.000000 79.249100 -29.819200 -2.580440 0.000000 0.000000 137.479000 4.459350 0.000000 -23.274000 0.000000 0.000000 7.125020 -0.000000 -0.000000 0.000000 -74.161900 22.818300 1.914940 0.000000 0.000000 135.926000 2.956050 0.000000 -31.195000 0.000000 0.000000 7.125020
2.453440 14.537700 0.403974 2.703390 11.168600 12.723100 -19.690600 -13.927200 2.666890 0.000000 0.000000 21.646300 28.958100 0.000000 -34.993600 0.000000 0.000000 -6.952280 3.330940 -1.261780 -47.801100 0.000000 0.000000 44.806700 -15.007500 0.000000 -2.785000 0.000000 0.000000 -10.535900 -3.624040 -1.630460 -5.049860 -0.358391 -2.116940 -7.917810 1.641620 -0.858068 -5.282160 6.860380 0.807232 -13.671800 -2.591710 0.796072 16.017000 -0.000000 -0.000000 0.000000 79.175800 -29.827800 -2.538050 0.000000 0.000000 137.523000 4.386890 0.000000 -23.065200 0.000000 0.000000 7.125020 -0.000000 -0.000000 0.000000 -74.195100 22.841400 1.950510 0.000000 0.000000 135.864000 2.937010 0.000000 -31.173600 0.000000 0.000000 7.125020
2.457680 14.538700 0.400721 2.691530 11.123400 12.675300 -19.719900 -13.891200 2.727470 0.000000 0.000000 21.620000 28.962500 0.000000 -34.981200 0.000000 0.000000 -6.920010 3.291960 -1.147410 -47.738200 0.000000 0.000000 44.735200 -15.072600 0.000000 -2.723420 0.000000 0.000000 -10.574500 -3.635540 -1.631500 -5.081030 -0.367738 -2.117350 -7.930010 1.637590 -0.857884 -5.277650 6.913170 0.821203 -13.621200 -2.608270 0.810996 16.053000 -0.000000 -0.000000 0.000000 79.097000 -29.841400 -2.473080 0.000000 0.000000 137.522000 4.343300 0.000000 -22.943000 0.000000 0.000000 7.125020 -0.000000 -0.000000 0.000000 -74.222800 22.825400 2.000020 0.000000 0.000000 135.716000 2.902590 0.000000 -31.143000 0.000000 0.000000 7.125020
2.462080 14.539400 0.397747 2.686940 11.068400 12.617900 -19.766500 -13.861300 2.806550 0.000000 0.000000 21.590800 28.977500 0.000000 -34.977600 0.000000 0.000000 -6.878320 3.243590 -1.025040 -47.668900 0.000000 0.000000 44.666600 -15.133600 0.000000 -2.662380 0.000000 0.000000 -10.611900 -3.647160 -1.628870 -5.107310 -0.382165 -2.113150 -7.935880 1.628430 -0.855711 -5.269570 6.954170 0.836127 -13.577600 -2.615290 0.826027 16.096800 -0.000000 0.000000 0.000000 79.015600 -29.859800 -2.392390 0.000000 0.000000 137.489000 4.330980 0.000000 -22.887000 0.000000 0.000000 7.125020 -0.000000 0.000000 0.000000 -74.243800 22.778800 2.051310 0.000000 0.000000 135.508000 2.840720 0.000000 -31.092800 0.000000 0.000000 7.125020
2.466580 14.539900 0.394881 2.688730 11.007700 12.552900 -19.826500 -13.836100 2.901900 0.000000 0.000000 21.554300 28.998500 0.000000 -34.978200 0.000000 0.000000 -6.823460 3.185790 -0.895251 -47.595200 0.000000 0.000000 44.603700 -15.194900 0.000000 -2.605100 0.000000 0.000000 -10.638400 -3.659320 -1.624460 -5.128830 -0.399500 -2.106760 -7.934170 1.616600 -0.852717 -5.256290 6.977730 0.852411 -13.554800 -2.610270 0.840687 16.153200 -0.000000 -0.000000 0.000000 78.932300 -29.874400 -2.296450 0.000000 0.000000 137.432000 4.341590 0.000000 -22.882200 0.000000 0.000000 7.125020 -0.000000 -0.000000 0.000000 -74.251700 22.714400 2.111410 0.000000 0.000000 135.265000 2.755220 0.000000 -31.031400 0.000000 0.000000 7.125020
2.470980 14.540400 0.391950 2.694310 10.944800 12.484000 -19.892900 -13.814700 3.004490 0.000000 0.000000 21.513500 29.022000 0.000000 -34.980300 0.000000 0.000000 -6.758640 3.121480 -0.758162 -47.520000 0.000000 0.000000 44.545100 -15.260800 0.000000 -2.551900 0.000000 0.000000 -10.653400 -3.672440 -1.619490 -5.142040 -0.417735 -2.100000 -7.930500 1.604590 -0.849490 -5.245610 6.993670 0.868724 -13.537700 -2.600010 0.854810 16.212300 0.000000 -0.000000 0.000000 78.852600 -29.888400 -2.198380 0.000000 0.000000 137.361000 4.383640 0.000000 -22.913400 0.000000 0.000000 7.125020 0.000000 -0.000000 0.000000 -74.247900 22.646300 2.172190 0.000000 0.000000 135.017000 2.653230 0.000000 -30.959900 0.000000 0.000000 7.125020
2.475170 14.540800 0.388896 2.704750 10.883900 12.414900 -19.962600 -13.792100 3.105660 0.000000 0.000000 21.474000 29.045500 0.000000 -34.978400 0.000000 0.000000 -6.698300 3.050150 -0.617672 -47.444600 0.000000 0.000000 44.488500 -15.333100 0.000000 -2.499940 0.000000 0.000000 -10.662300 -3.690110 -1.616230 -5.150340 -0.435528 -2.095630 -7.924350 1.595670 -0.847237 -5.234800 7.001020 0.887460 -13.531800 -2.583450 0.869638 16.275200 0.000000 0.000000 0.000000 78.773100 -29.894500 -2.097160 0.000000 0.000000 137.288000 4.433870 0.000000 -22.963500 0.000000 0.000000 7.125020 0.000000 0.000000 0.000000 -74.231200 22.590400 2.233080 0.000000 0.000000 134.790000 2.539150 0.000000 -30.906800 0.000000 0.000000 7.125020
2.479160 14.541300 0.385699 2.714270 10.828200 12.349500 -20.026400 -13.766500 3.196310 0.000000 0.000000 21.440800 29.064800 0.000000 -34.973500 0.000000 0.000000 -6.643300 2.978870 -0.476191 -47.371400 0.000000 0.000000 44.430600 -15.412300 0.000000 -2.446650 0.000000 0.000000 -10.663000 -3.706850 -1.615650 -5.155650 -0.450925 -2.094910 -7.918740 1.588770 -0.846739 -5.226000 7.012810 0.906946 -13.531600 -2.569630 0.884743 16.337900 -0.000000 0.000000 0.000000 78.693100 -29.895400 -1.997010 0.000000 0.000000 137.213000 4.496550 0.000000 -23.031000 0.000000 0.000000 7.125020 -0.000000 0.000000 0.000000 -74.203500 22.554700 2.289120 0.000000 0.000000 134.604000 2.419190 0.000000 -30.864400 0.000000 0.000000 7.125020
